<svg aria-hidden="true" style="position: absolute; width: 0; height: 0; overflow: hidden;" version="1.1" xmlns="http://www.w3.org/2000/svg" xmlns:xlink="http://www.w3.org/1999/xlink">
    <defs>
        <symbol id="icon-close-form" viewBox="0 0 32 32">
            <path d="M32 3.223l-3.223-3.223-12.777 12.777-12.777-12.777-3.223 3.223 12.777 12.777-12.777 12.777 3.223 3.223 12.777-12.777 12.777 12.777 3.223-3.223-12.777-12.777 12.777-12.777z" fill="#000000"></path>
        </symbol>
        <symbol id="linkedin" viewBox="0 0 24 24">
            <path fill="#000000" d="M31.992 32v-0.001h0.008v-11.736c0-5.741-1.236-10.164-7.948-10.164-3.227 0-5.392 1.771-6.276 3.449h-0.093v-2.913h-6.364v21.364h6.627v-10.579c0-2.785 0.528-5.479 3.977-5.479 3.399 0 3.449 3.179 3.449 5.657v10.401h6.62z"></path>
            <path fill="#000000" d="M0.528 10.636h6.635v21.364h-6.635v-21.364z"></path>
            <path fill="#000000" d="M3.843-0c-2.121 0-3.843 1.721-3.843 3.843s1.721 3.879 3.843 3.879c2.121 0 3.843-1.757 3.843-3.879-0.001-2.121-1.723-3.843-3.843-3.843v0z"></path>
        </symbol>
        <symbol id="facebook" viewBox="0 0 48 48">
	<g fill="none" fill-rule="evenodd" clip-rule="evenodd">
		<path stroke="black" stroke-linecap="round" stroke-linejoin="round" stroke-width="4" d="M4.111 46A2.117 2.117 0 0 1 2 43.877V4.123C2 2.95 2.945 2 4.111 2H43.89C45.055 2 46 2.95 46 4.123v39.754A2.117 2.117 0 0 1 43.889 46z" />
		<path fill="black" d="M38.662 17.887h-4.869a2.445 2.445 0 0 0-2.444 2.444v4.89h7.313l-1.071 7.332h-6.242V46h-8.042V32.553h-6.64v-7.331h6.554l.086-6.959l-.024-2.494a6.377 6.377 0 0 1 6.376-6.438h9.003z" />
	</g>
</symbol>
        <symbol id="twitter" viewBox="0 0 24 24">
	<path fill="none" stroke="black" stroke-linecap="round" stroke-linejoin="round" stroke-width="1.5" d="m3 21l7.548-7.548M21 3l-7.548 7.548m0 0L8 3H3l7.548 10.452m2.904-2.904L21 21h-5l-5.452-7.548" color="black" />
</symbol>
        <symbol id="instagram" viewBox="0 0 14 14">
	<g fill="none" stroke="black" stroke-linecap="round" stroke-linejoin="round">
		<path d="M10.333 3.644a.25.25 0 1 1 0-.5m0 .5a.25.25 0 1 0 0-.5" />
		<path d="M.858 3.431A2.573 2.573 0 0 1 3.431.858h6.862a2.573 2.573 0 0 1 2.573 2.573v6.862a2.573 2.573 0 0 1-2.573 2.573H3.43a2.573 2.573 0 0 1-2.573-2.573V3.43Z" />
		<path d="M4.312 6.862a2.55 2.55 0 1 0 5.1 0a2.55 2.55 0 1 0-5.1 0" />
	</g>
</symbol>

        <symbol id="burger" viewBox="0 0 32 32">
            <path d="M4.799 8.001c0-0.424 0.169-0.831 0.469-1.131s0.707-0.469 1.131-0.469h19.2c0.424 0 0.831 0.169 1.131 0.469s0.469 0.707 0.469 1.131-0.169 0.831-0.469 1.131c-0.3 0.3-0.707 0.469-1.131 0.469h-19.2c-0.424 0-0.831-0.169-1.131-0.469s-0.469-0.707-0.469-1.131z"></path>
            <path d="M4.799 16.001c0-0.424 0.169-0.831 0.469-1.131s0.707-0.469 1.131-0.469h19.2c0.424 0 0.831 0.169 1.131 0.469s0.469 0.707 0.469 1.131c0 0.424-0.169 0.831-0.469 1.131s-0.707 0.469-1.131 0.469h-19.2c-0.424 0-0.831-0.169-1.131-0.469s-0.469-0.707-0.469-1.131z"></path>
            <path d="M4.799 24.001c0-0.424 0.169-0.831 0.469-1.131s0.707-0.469 1.131-0.469h19.2c0.424 0 0.831 0.169 1.131 0.469s0.469 0.707 0.469 1.131c0 0.424-0.169 0.831-0.469 1.131s-0.707 0.469-1.131 0.469h-19.2c-0.424 0-0.831-0.169-1.131-0.469s-0.469-0.707-0.469-1.131z"></path>
        </symbol>
    </defs>
</svg>